<?xml version="1.0" encoding="UTF-8" standalone="no"?>
<svg
   xmlns:dc="http://purl.org/dc/elements/1.1/"
   xmlns:cc="http://creativecommons.org/ns#"
   xmlns:rdf="http://www.w3.org/1999/02/22-rdf-syntax-ns#"
   xmlns:svg="http://www.w3.org/2000/svg"
   xmlns="http://www.w3.org/2000/svg"
   xmlns:sodipodi="http://sodipodi.sourceforge.net/DTD/sodipodi-0.dtd"
   xmlns:inkscape="http://www.inkscape.org/namespaces/inkscape"
   inkscape:version="1.0beta2 (unknown)"
   sodipodi:docname="background.svg"
   id="svg28"
   version="1.1"
   height="282.546pt"
   width="327.783pt"
   viewBox="100.761 227.548 327.783 282.546"
   style="isolation:isolate">
  <metadata
     id="metadata34">
    <rdf:RDF>
      <cc:Work
         rdf:about="">
        <dc:format>image/svg+xml</dc:format>
        <dc:type
           rdf:resource="http://purl.org/dc/dcmitype/StillImage" />
        <dc:title></dc:title>
      </cc:Work>
    </rdf:RDF>
  </metadata>
  <defs
     id="defs32" />
  <sodipodi:namedview
     inkscape:current-layer="svg28"
     inkscape:window-maximized="1"
     inkscape:window-y="26"
     inkscape:window-x="0"
     inkscape:cy="188.36399"
     inkscape:cx="24.103443"
     inkscape:zoom="0.74324183"
     showgrid="false"
     id="namedview30"
     inkscape:window-height="1020"
     inkscape:window-width="1920"
     inkscape:pageshadow="2"
     inkscape:pageopacity="0"
     guidetolerance="10"
     gridtolerance="10"
     objecttolerance="10"
     borderopacity="1"
     inkscape:document-rotation="0"
     bordercolor="#666666"
     pagecolor="#000000"
     units="px" />
  <g
     style="opacity:0.15"
     id="g26">
    <g
       id="g24">
      <path
         inkscape:connector-curvature="0"
         id="path2"
         fill="rgb(255,255,255)"
         fill-rule="evenodd"
         d="m 100.761,435.524 c 0,0 4.505,14.543 9.792,16.404 5.289,1.859 14.298,-2.646 17.602,5.164 3.305,7.81 15.203,25.414 17.064,35.866 1.86,10.454 4.504,16.401 4.504,16.401 h -38.51 c 0,0 -7.147,-16.401 -8.469,-34.004 -1.322,-17.601 -1.983,-39.831 -1.983,-39.831 z" />
      <path
         inkscape:connector-curvature="0"
         id="path4"
         fill="rgb(255,255,255)"
         fill-rule="evenodd"
         d="m 341.277,381.527 c 0,0 5.742,1.068 10.908,3.712 5.166,2.645 11.654,7.271 15.62,7.934 3.966,0.661 6.611,0.538 10.454,3.183 3.843,2.642 13.095,12.437 18.262,14.419 5.165,1.981 5.826,2.521 8.473,5.827 2.642,3.305 5.286,5.826 5.286,8.471 0,2.644 1.2,10.992 4.503,18.262 3.307,7.271 7.149,20.908 8.472,30.041 1.321,9.132 5.289,24.872 5.289,24.872 v 11.775 h -116.19 c 0,0 -5.288,-6.488 -12.436,-9.792 -7.149,-3.306 -11.238,-5.828 -14.419,-8.472 -3.184,-2.645 -5.827,-7.932 -5.827,-7.932 0,0 2.521,-2.521 4.503,-5.826 1.983,-3.307 -0.762,-7.31 -4.227,-9.204 5.656,0.922 7.283,1.574 14.681,-0.589 11.884,-3.473 19.046,-9.132 24.212,-19.585 5.166,-10.455 4.505,-27.518 4.505,-33.344 0,-5.827 -0.928,-7.539 -0.928,-7.539 0,0 7.001,-7.851 10.967,-13.138 3.966,-5.288 7.892,-13.075 7.892,-13.075 z" />
      <path
         inkscape:connector-curvature="0"
         id="path6"
         fill="rgb(255,255,255)"
         fill-rule="evenodd"
         d="m 245.378,431.011 c 0,0 3.818,1.543 9.59,2.907 2.396,0.568 -5.638,-7.546 -2.702,-7.161 6.065,0.788 13.507,9.589 30.391,7.967 15.808,-1.517 17.798,-9.529 22.425,-11.514 4.627,-1.982 10.454,-6.608 10.454,-6.608 0,0 0.784,17.063 -2.522,26.194 -3.305,9.133 -8.447,21.395 -18.385,23.429 -7.447,1.525 -15.012,1.322 -18.924,-1.982 -6.295,-5.319 -10.331,-14.298 -15.62,-14.959 -5.288,-0.661 -14.707,-18.273 -14.707,-18.273 z" />
      <path
         inkscape:connector-curvature="0"
         id="path8"
         fill="rgb(255,255,255)"
         fill-rule="evenodd"
         d="m 243.146,464.242 c 5.826,-3.183 11.652,0.783 14.958,5.287 3.305,4.504 10.575,14.42 13.757,18.926 3.183,4.504 3.306,8.591 9.793,12.436 6.487,3.844 12.314,8.47 12.314,8.47 H 256.12 Z" />
      <path
         inkscape:connector-curvature="0"
         id="path10"
         fill="rgb(255,255,255)"
         fill-rule="evenodd"
         d="m 149.063,396.355 c 0,0 14.958,19.706 20.907,34.004 5.949,14.298 14.419,46.318 14.419,56.111 0,9.793 -0.662,23.552 -0.662,23.552 h 18.925 c 0,0 2.644,-26.317 0,-37.311 -2.645,-10.992 -10.992,-22.768 -18.263,-33.882 -7.271,-11.114 -5.166,-22.769 -9.132,-28.056 -3.965,-5.288 -3.427,-8.593 -7.27,-6.609 -3.844,1.981 -3.305,2.105 -9.131,-1.2 -5.827,-3.304 -9.793,-6.609 -9.793,-6.609 z" />
      <path
         inkscape:connector-curvature="0"
         id="path12"
         fill="rgb(255,255,255)"
         fill-rule="evenodd"
         d="m 101.994,422.711 c 1.5,-1.876 10.509,0.036 13.171,3.414 2.662,3.377 6.789,8.292 8.291,9.041 1.501,0.752 3.377,-0.373 3.377,-0.373 0,0 -6.378,-7.882 -6.378,-9.795 0,-1.911 5.664,0 10.167,3.378 4.503,3.379 10.133,11.331 14.671,15.083 4.539,3.753 15.797,9.757 19.21,16.171 3.413,6.415 7.165,21.086 7.165,27.503 0,6.415 1.126,18.833 1.126,18.833 l -1.126,4.128 H 163 c 0,0 -7.542,-15.081 -10.918,-29.001 -3.377,-13.921 -9.007,-27.502 -13.545,-32.005 -4.538,-4.506 -5.254,-9.418 -11.294,-10.543 -6.04,-1.126 -9.453,1.162 -14.331,-4.128 -4.878,-5.289 -7.541,-9.419 -7.541,-9.419 z" />
      <path
         inkscape:connector-curvature="0"
         id="path14"
         fill="rgb(255,255,255)"
         fill-rule="evenodd"
         d="m 137.411,397.122 c 0,0 13.58,7.917 19.584,21.462 6.005,13.545 9.043,22.586 13.546,30.128 4.503,7.541 7.916,21.086 9.416,29.753 1.502,8.668 -0.374,19.21 -0.374,19.21 0,0 -1.913,-21.086 -4.915,-29.002 -3.003,-7.918 -14.707,-21.838 -21.086,-29.003 -6.379,-7.165 -22.551,-19.55 -25.213,-24.464 -2.662,-4.915 -2.252,-7.915 0.375,-7.915 2.627,0 8.292,3.752 12.795,10.167 4.502,6.415 14.67,12.795 14.67,12.795 0,0 -6.039,-12.831 -9.792,-18.836 -3.751,-6.002 -9.006,-14.295 -9.006,-14.295 z" />
      <path
         inkscape:connector-curvature="0"
         id="path16"
         fill="rgb(255,255,255)"
         fill-rule="evenodd"
         d="m 219.504,477.339 c 0,0 7.917,-7.201 11.293,-5.289 3.378,1.91 7.166,13.992 9.042,20.372 1.876,6.379 3.753,17.296 3.753,17.296 h -33.881 c 0,0 1.876,-15.42 0.751,-25.214 -1.125,-9.791 -1.125,-11.704 -2.627,-15.082 -1.501,-3.377 -3.038,-7.166 -3.038,-7.166 0,0 7.13,-0.339 9.418,4.165 2.286,4.503 5.289,10.918 5.289,10.918 z" />
      <path
         inkscape:connector-curvature="0"
         id="path18"
         fill="rgb(255,255,255)"
         fill-rule="evenodd"
         d="m 271.083,398.555 h 3.979 c 1.53,0 4.896,0.611 4.896,0.611 0,0 -2.143,-3.674 -4.284,-3.367 -2.142,0.306 -4.591,2.756 -4.591,2.756 z m 12.548,-53.248 2.753,2.447 c 0,0 0.918,1.226 2.754,3.061 1.836,1.835 1.531,0.613 3.978,0 2.448,-0.612 0.612,-5.203 0.612,-5.203 l -0.918,-2.755 c 0,0 -2.753,3.367 -4.897,3.673 -2.141,0.306 -4.282,-1.223 -4.282,-1.223 z m 28.432,-57.381 c 0,0 3.031,2.165 8.493,2.165 5.461,0 6.328,0.434 8.493,0 2.166,-0.433 3.297,0.697 6.329,1.13 3.031,0.433 6.761,-1.732 9.359,1.299 2.599,3.032 3.898,6.064 3.898,6.064 l -0.434,-6.93 c 0,0 -5.461,-8.494 -8.493,-8.926 -3.031,-0.434 -5.462,0.432 -7.626,0.432 h -8.23 c -2.43,0 -8.758,1.733 -10.489,1.3 -1.735,-0.433 -1.3,3.466 -1.3,3.466 z m 29.539,23.209 c 0,0 -10.896,-4.973 -16.368,-7.415 -5.472,-2.442 -11.132,-4.655 -12.822,-5.219 -1.69,-0.563 -4.508,-0.962 -5.636,0.376 -1.127,1.337 -3.24,5.283 -2.841,6.223 0.399,0.939 0.21,4.532 1.901,5.096 1.691,0.563 3.946,0.963 5.074,0.188 1.126,-0.773 2.276,-1.128 3.591,-0.375 1.316,0.751 2.067,1.315 4.134,1.502 2.066,0.188 2.982,1.128 4.697,0.376 1.714,-0.751 2.466,-0.915 3.78,-1.878 1.314,-0.963 1.126,-1.525 2.819,-1.338 1.69,0.188 1.479,1.15 3.193,2.089 1.714,0.938 3.781,0.938 5.283,0.938 1.504,-10e-4 3.195,-0.563 3.195,-0.563 z m -65.439,-60.492 c 1.496,-3.49 0,-6.801 0.997,-10.788 0.998,-3.988 2.172,-10.791 6.979,-11.788 4.808,-0.997 15.276,-0.498 20.085,0.997 4.806,1.496 13.779,1.496 18.586,1.496 4.808,0 9.615,-1.995 14.101,-1.995 4.488,0 8.974,2.813 12.784,3.312 3.811,0.499 7.976,1.176 11.786,8.475 3.811,7.301 1.318,21.9 1.817,25.39 0.498,3.49 0.498,17.093 0.498,20.583 0,3.489 -0.179,18.765 -0.498,23.074 -0.321,4.31 -3.313,22.897 -3.313,22.897 0,0 2.814,-15.276 6.305,-20.084 3.489,-4.807 4.308,-7.798 6.303,-7.798 1.994,0 2.491,3.312 1.994,6.302 -0.5,2.992 -7.3,15.598 -7.3,19.086 0,3.49 -3.811,12.464 -5.805,17.77 -1.994,5.305 -7.477,9.794 -7.477,9.794 0,0 -4.807,1.815 -5.805,4.806 -0.997,2.991 -12.285,24.072 -19.086,33.866 -6.802,9.792 -18.588,19.264 -20.582,21.08 -1.995,1.816 -16.772,12.107 -21.081,13.104 -4.31,0.998 -13.781,1.993 -19.086,0.499 -5.307,-1.495 -10.79,-4.986 -10.79,-12.783 0,-7.799 7.798,-13.104 11.288,-13.104 h 8.296 c 0,0 -12.783,-0.499 -17.591,-0.998 -4.807,-0.498 -8.795,1.317 -8.795,-3.988 0,-5.305 1.673,-7.798 3.988,-7.798 2.315,0 3.809,1.994 6.303,-0.499 2.493,-2.491 4.309,-3.81 7.301,-5.805 2.99,-1.993 11.464,-0.497 15.275,-0.997 3.811,-0.499 9.115,-0.499 12.107,0.5 2.992,0.996 9.793,1.992 11.786,1.992 1.995,0 -5.483,-2.49 -9.792,-3.488 -4.309,-0.997 -6.304,-0.997 -9.793,-0.997 h -10.291 c -2.814,0 -3.489,-1.176 -8.298,-2.991 -4.806,-1.817 -4.487,-2.814 -3.987,-6.303 0.498,-3.489 1.496,-5.306 4.487,-7.299 2.992,-1.995 2.992,-8.298 2.992,-8.298 0,0 2.314,-3.49 2.813,-5.483 0.498,-1.994 1.815,-5.805 0,-7.8 -1.817,-1.993 -3.312,-4.486 -5.307,-3.988 -1.993,0.499 -1.495,7.479 -1.495,7.479 0,0 -3.811,2.493 -5.306,-0.996 -1.496,-3.49 -1.673,-7.301 1.816,-8.796 3.489,-1.495 6.979,-0.997 6.979,-0.997 0,0 3.312,-8.298 3.81,-12.286 0.499,-3.986 3.49,-6.979 3.988,-11.287 0.499,-4.31 2.492,-25.889 2.492,-25.889 0,0 -3.167,0.998 -6.978,-0.499 -3.811,-1.495 -0.321,-6.801 -3.312,-7.797 -2.992,-0.998 -7.798,-4.665 -10.791,-6.98 -2.99,-2.315 -0.177,-9.116 4.309,-13.104 4.489,-3.991 10.294,-8.799 10.294,-8.799 z" />
      <path
         inkscape:connector-curvature="0"
         id="path20"
         fill="rgb(255,255,255)"
         fill-rule="evenodd"
         d="m 260.068,329.925 c 0,0 -5.43,10.781 -6.457,14.929 -1.026,4.146 -9.279,15.479 -10.562,17.787 -1.284,2.31 -4.62,7.996 -4.364,11.075 0.258,3.081 1.284,4.403 0,7.227 -1.282,2.823 -3.377,-2.608 -3.377,-2.608 l 0.298,-7.184 c 0,0 0,-14.927 3.079,-19.329 3.08,-4.402 9.793,-13.169 11.846,-13.939 2.054,-0.77 9.537,-7.958 9.537,-7.958 z" />
      <path
         inkscape:connector-curvature="0"
         id="path22"
         fill="rgb(255,255,255)"
         fill-rule="evenodd"
         d="m 255.705,292.296 c 0,0 -4.916,2.351 -6.713,-0.512 -1.796,-2.864 1.283,-3.635 3.336,-4.405 2.053,-0.77 6.713,0.258 7.74,0.258 1.027,0 0.256,0.986 -1.54,2.053 -1.797,1.067 -2.823,2.606 -2.823,2.606 z" />
    </g>
  </g>
</svg>
