<?xml version="1.0" encoding="UTF-8" standalone="no"?><!-- Generator: Gravit.io --><svg xmlns="http://www.w3.org/2000/svg" xmlns:xlink="http://www.w3.org/1999/xlink" style="isolation:isolate" viewBox="534.871 53.052 159.813 44.938" width="159.813pt" height="44.938pt"><g><g><path d=" M 661.969 57.355 C 660.823 56.219 660.248 54.826 660.246 53.174 C 661.746 53.279 663.053 53.886 664.159 54.993 C 665.302 56.138 665.912 57.494 665.987 59.061 C 664.413 59.02 663.074 58.452 661.969 57.355 Z " fill="rgb(167,165,166)"/><path d=" M 564.287 57.508 C 563.142 56.373 562.567 54.978 562.563 53.327 C 564.068 53.432 565.371 54.039 566.477 55.146 C 567.622 56.292 568.232 57.648 568.305 59.215 C 566.732 59.172 565.394 58.604 564.287 57.508 Z " fill="rgb(167,165,166)"/><path d=" M 607.521 60.421 C 611.647 60.421 615.182 61.867 618.124 64.761 C 618.944 65.568 619.651 66.424 620.243 67.328 C 618.735 69.636 617.979 72.269 617.979 75.226 L 617.979 85.926 C 615.067 88.701 611.58 90.09 607.521 90.09 C 603.393 90.09 599.865 88.656 596.937 85.787 C 594.01 82.92 592.544 79.422 592.544 75.293 C 592.544 71.164 594.01 67.654 596.937 64.761 C 599.864 61.867 603.393 60.421 607.521 60.421 Z  M 607.521 66.31 C 605.079 66.31 603.013 67.189 601.322 68.945 C 599.633 70.702 598.787 72.818 598.787 75.293 C 598.787 77.768 599.626 79.872 601.303 81.603 C 602.982 83.336 605.055 84.201 607.522 84.201 C 609.989 84.201 612.067 83.336 613.758 81.603 C 615.447 79.872 616.293 77.768 616.293 75.293 C 616.293 72.818 615.447 70.702 613.758 68.945 C 612.065 67.189 609.987 66.31 607.521 66.31 Z " fill="rgb(255,255,255)"/><path d=" M 624.207 83.862 C 624.207 85.568 623.593 87.032 622.374 88.255 C 621.149 89.479 619.685 90.09 617.978 90.09 L 617.978 85.926 L 618.123 85.787 C 621.062 82.92 622.535 79.422 622.535 75.293 C 622.535 72.317 621.771 69.662 620.242 67.328 C 620.84 66.412 621.556 65.548 622.389 64.735 C 625.328 61.868 628.865 60.435 632.992 60.435 L 639.388 60.425 L 639.388 65.156 C 638.369 65.939 637.191 66.329 635.845 66.329 L 632.991 66.329 C 630.52 66.329 628.437 67.195 626.744 68.925 C 625.053 70.654 624.206 72.755 624.206 75.227 L 624.206 83.862 L 624.207 83.862 Z " fill="rgb(255,255,255)"/><path d=" M 650.194 66.859 C 650.774 66.278 651.472 65.989 652.289 65.989 L 659.554 65.989 C 659.554 67.618 658.974 69.007 657.814 70.156 C 656.651 71.304 655.253 71.878 653.624 71.878 L 652.29 71.878 C 651.474 71.878 650.775 71.594 650.195 71.026 C 649.614 70.457 649.323 69.767 649.323 68.951 C 649.322 68.136 649.613 67.439 650.194 66.859 Z " fill="rgb(255,255,255)"/><path d=" M 639.389 53.052 C 641.095 53.052 642.557 53.663 643.779 54.886 C 645.004 56.111 645.615 57.574 645.615 59.28 L 645.615 75.298 C 645.615 77.769 646.458 79.87 648.138 81.6 C 649.817 83.33 651.892 84.196 654.364 84.196 L 657.219 84.196 C 658.168 84.196 659.037 84.391 659.828 84.78 C 660.013 86.098 660.603 87.256 661.599 88.254 C 662.069 88.722 662.574 89.101 663.112 89.389 C 663.139 89.618 663.151 89.851 663.151 90.089 L 654.363 90.089 C 650.237 90.089 646.71 88.655 643.778 85.789 C 640.853 82.921 639.388 79.424 639.388 75.296 L 639.388 65.155 C 639.606 64.988 639.815 64.803 640.015 64.6 C 641.165 63.45 641.74 62.056 641.74 60.421 L 639.388 60.424 L 639.388 53.052 L 639.389 53.052 Z " fill="rgb(255,255,255)"/><path d=" M 680.521 77.186 C 680.521 79.114 681.19 80.766 682.523 82.137 C 683.857 83.51 685.489 84.196 687.418 84.196 L 688.791 84.196 C 690.42 84.196 691.81 84.771 692.96 85.919 C 694.108 87.069 694.684 88.459 694.684 90.09 L 686.157 90.09 C 682.895 90.09 680.114 88.966 677.817 86.717 C 675.519 84.467 674.37 81.724 674.37 78.487 L 674.37 73.334 C 674.37 71.382 673.702 69.726 672.368 68.367 C 671.032 67.008 669.401 66.328 667.474 66.328 L 666.176 66.328 L 665.988 66.326 C 665.913 64.759 665.302 63.402 664.16 62.257 C 663.054 61.149 661.747 60.543 660.247 60.438 L 668.772 60.421 C 672.033 60.421 674.807 61.546 677.094 63.796 C 679.379 66.046 680.522 68.792 680.522 72.031 L 680.522 77.186 L 680.521 77.186 Z " fill="rgb(255,255,255)"/><path d=" M 659.767 60.421 C 659.928 60.421 660.087 60.427 660.246 60.438 C 660.248 62.09 660.822 63.483 661.969 64.619 C 663.074 65.715 664.413 66.284 665.988 66.326 L 665.996 66.652 L 665.996 90.09 C 664.943 90.09 663.983 89.857 663.113 89.39 C 662.969 88.058 662.401 86.9 661.409 85.919 C 660.924 85.44 660.395 85.061 659.829 84.781 C 659.788 84.482 659.767 84.175 659.767 83.86 L 659.767 60.421 L 659.767 60.421 Z " fill="rgb(255,255,255)"/><path d=" M 539.262 96.158 C 538.04 97.378 536.574 97.99 534.871 97.99 L 534.871 75.785 C 534.871 71.657 536.339 68.149 539.28 65.257 C 542.22 62.366 545.755 60.92 549.884 60.92 C 554.012 60.92 557.55 62.366 560.504 65.259 C 561.261 66.002 561.921 66.785 562.486 67.608 L 562.486 83.969 C 561.926 84.783 561.271 85.555 560.523 86.287 C 557.58 89.155 554.034 90.588 549.883 90.588 L 541.097 90.588 L 541.097 91.773 C 541.098 93.475 540.485 94.938 539.262 96.158 Z  M 549.884 84.694 C 552.356 84.694 554.431 83.83 556.112 82.099 C 557.792 80.369 558.633 78.268 558.633 75.797 C 558.633 73.327 557.786 71.213 556.094 69.458 C 554.401 67.703 552.331 66.827 549.885 66.827 C 547.437 66.827 545.367 67.703 543.674 69.458 C 541.98 71.212 541.135 73.327 541.135 75.797 L 541.135 84.693 L 549.884 84.693 L 549.884 84.694 Z " fill="rgb(255,255,255)"/><path d=" M 576.759 72.532 C 576.759 69.292 577.908 66.546 580.206 64.296 C 582.503 62.046 585.283 60.92 588.546 60.92 L 597.069 60.92 C 597.069 62.574 596.496 63.97 595.346 65.106 C 594.196 66.242 592.78 66.809 591.101 66.809 L 589.802 66.809 C 587.872 66.809 586.241 67.496 584.907 68.869 C 583.57 70.242 582.903 71.894 582.903 73.821 L 582.903 78.977 C 582.903 82.216 581.76 84.964 579.474 87.213 C 577.189 89.464 574.415 90.588 571.155 90.588 L 568.712 90.588 L 562.631 90.588 C 562.631 89.494 562.892 88.508 563.409 87.63 C 563.662 88.025 563.964 88.399 564.32 88.753 C 565.542 89.978 567.006 90.588 568.712 90.588 L 568.712 84.7 L 569.861 84.7 C 571.789 84.7 573.419 84.02 574.754 82.659 C 576.09 81.299 576.758 79.643 576.758 77.688 L 576.758 72.532 L 576.759 72.532 Z " fill="rgb(255,255,255)"/><path d=" M 563.41 87.629 C 562.794 86.66 562.486 85.571 562.486 84.357 L 562.486 83.968 C 564.117 81.593 564.933 78.866 564.933 75.79 C 564.933 72.721 564.117 69.994 562.486 67.607 L 562.486 60.919 C 564.19 60.919 565.654 61.531 566.879 62.754 C 568.101 63.978 568.713 65.443 568.713 67.149 L 568.713 84.7 L 568.526 84.7 C 566.896 84.7 565.505 85.275 564.356 86.422 C 563.98 86.799 563.663 87.201 563.41 87.629 Z " fill="rgb(255,255,255)"/></g></g></svg>